<?xml version="1.0" encoding="UTF-8" standalone="no"?>
<svg
   width="1000"
   height="1000"
   viewBox="0 0 1000 1000"
   fill="none"
   stroke="currentColor"
   stroke-width="2"
   stroke-linecap="round"
   stroke-linejoin="round"
   class="lucide lucide-leaf"
   version="1.1"
   id="svg2"
   xmlns="http://www.w3.org/2000/svg"
   xmlns:svg="http://www.w3.org/2000/svg">
  <defs
     id="defs2" />
  <path
     style="fill:#ffffff;stroke:#feb80e;stroke-width:0.203487"
     id="rect2"
     width="999.79651"
     height="999.79651"
     x="0.10174561"
     y="0.10174561"
     d="M 136.10391,0.10174561 H 863.89605 A 136.0022,136.0022 45 0 1 999.89825,136.10395 v 727.7921 a 136.0022,136.0022 135 0 1 -136.0022,136.0022 H 136.10395 A 136.0022,136.0022 45 0 1 0.10174561,863.89605 V 136.10391 A 136.00216,136.00216 135 0 1 136.10391,0.10174561 Z" />
  <g
     id="g2"
     transform="matrix(25.567665,0,0,25.567665,205.97185,205.97078)">
    <path
       d="M 11,20 A 7,7 0 0 1 9.8,6.1 C 15.5,5 17,4.48 19,2 c 1,2 2,4.18 2,8 0,5.5 -4.78,10 -10,10 z"
       id="path1" />
    <path
       d="M 2,21 C 2,18 3.85,15.64 7.08,15 9.5,14.52 12,13 13,12"
       id="path2" />
  </g>
</svg>
