<svg xmlns="http://www.w3.org/2000/svg" viewBox="0 0 50 50" width="200" height="200"> <path d="M0,0 L10,5 L20,0 L30,5 L40,0 L50,5" stroke="black" stroke-width="2" fill="none"/> <path d="M0,10 L10,15 L20,10 L30,15 L40,10 L50,15" stroke="black" stroke-width="2" fill="none"/> <path d="M0,20 L10,25 L20,20 L30,25 L40,20 L50,25" stroke="black" stroke-width="2" fill="none"/> <path d="M0,30 L10,35 L20,30 L30,35 L40,30 L50,35" stroke="black" stroke-width="2" fill="none"/> <path d="M0,40 L10,45 L20,40 L30,45 L40,40 L50,45" stroke="black" stroke-width="2" fill="none"/> </svg>