<?xml version="1.0" encoding="UTF-8" standalone="no"?>
<svg
   width="1000"
   height="1000"
   viewBox="0 0 1000 1000"
   fill="none"
   stroke="currentColor"
   stroke-width="2"
   stroke-linecap="round"
   stroke-linejoin="round"
   class="lucide lucide-sprout"
   version="1.1"
   id="svg4"
   xmlns="http://www.w3.org/2000/svg"
   xmlns:svg="http://www.w3.org/2000/svg">
  <defs
     id="defs4" />
  <g
     id="g4"
     transform="matrix(22.542493,0,0,22.542493,240.76106,229.49001)">
    <path
       style="fill:#ffffff;stroke:#feb80e;stroke-width:0.0299784"
       id="rect5"
       width="44.330688"
       height="44.330688"
       x="-10.665332"
       y="-34.165348"
       transform="scale(1,-1)"
       d="M -0.44593184,-34.165348 H 23.445957 a 10.2194,10.2194 45 0 1 10.2194,10.2194 V -0.05405958 A 10.2194,10.2194 135 0 1 23.445957,10.16534 H -0.44591384 A 10.219418,10.219418 45 0 1 -10.665332,-0.05407758 V -23.945948 a 10.2194,10.2194 135 0 1 10.21940016,-10.2194 z" />
    <g
       id="g5">
      <path
         d="M 7,20 H 17"
         id="path1" />
      <path
         d="m 10,20 c 5.5,-2.5 0.8,-6.4 3,-10"
         id="path2" />
      <path
         d="m 9.5,9.4 c 1.1,0.8 1.8,2.2 2.3,3.7 C 9.8,13.5 8.3,13.5 7,12.8 5.8,12.2 4.7,10.9 4,8.6 6.8,8.1 8.4,8.6 9.5,9.4 Z"
         id="path3" />
      <path
         d="M 14.1,6 A 7,7 0 0 0 13,10 c 1.9,-0.1 3.3,-0.6 4.3,-1.4 1,-1 1.6,-2.3 1.7,-4.6 -2.7,0.1 -4,1 -4.9,2 z"
         id="path4" />
    </g>
  </g>
</svg>
