<?xml version="1.0" encoding="UTF-8" standalone="no"?>
<svg
   stroke="#ffffff"
   fill="none"
   stroke-width="2"
   viewBox="0 0 24 24"
   stroke-linecap="round"
   stroke-linejoin="round"
   version="1.1"
   id="svg2"
   xmlns="http://www.w3.org/2000/svg"
   xmlns:svg="http://www.w3.org/2000/svg">
  <defs
     id="defs2" />
  <rect
     style="fill:#000000;stroke:#feb80e;stroke-width:0.00943744"
     id="rect2"
     width="100%"
     height="100%"
     x="6.2764964"
     y="6.2764964" />
  <path
     stroke="none"
     d="M 4.5000004e-8,0 H 24 V 24 H 4.5000004e-8 Z"
     fill="none"
     id="path1" />
  <path
     d="M 20.4,1e-8 A 3.6,3.6 0 0 1 24,3.6000001 V 20.4 A 3.6,3.6 0 0 1 20.4,24 H 3.5999999 A 3.6,3.6 0 0 1 0,20.4 V 3.6000001 A 3.6,3.6 0 0 1 3.5999999,1e-8 Z M 12,6.6000001 a 1.2,1.2 0 0 0 -1.2,1.2 v 1.9572 l -1.7340001,-1.1556 -0.1212,-0.072 a 1.2,1.2 0 0 0 -1.2108,2.0687999 l 2.1,1.4016 -2.1,1.4028 -0.1116,0.084 a 1.2,1.2 0 0 0 1.4436,1.9128 L 10.8,14.2416 V 16.2 l 0.0084,0.1404 A 1.2,1.2 0 0 0 13.2,16.2 v -1.9572 l 1.734,1.1556 0.1212,0.072 a 1.2,1.2 0 0 0 1.2108,-2.0688 l -2.1024,-1.4028 2.1024,-1.4004 0.1116,-0.084 A 1.2,1.2 0 0 0 14.934,8.6016001 l -1.734,1.1544 v -1.956 l -0.0084,-0.1404 A 1.2,1.2 0 0 0 12,6.6000001 Z"
     stroke-width="0"
     fill="#ffffff"
     id="path2" />
</svg>
