<?xml version="1.0" encoding="UTF-8" standalone="no"?>
<svg
   width="24"
   height="24"
   viewBox="0 0 24 24"
   fill="none"
   stroke="currentColor"
   stroke-width="2"
   stroke-linecap="round"
   stroke-linejoin="round"
   class="lucide lucide-waves"
   version="1.1"
   id="svg3"
   xmlns="http://www.w3.org/2000/svg"
   xmlns:svg="http://www.w3.org/2000/svg">
  <defs
     id="defs3" />
  <rect
     style="fill:#ffffff;fill-opacity:1;stroke:#000000;stroke-width:0;stroke-dasharray:none;stroke-opacity:1"
     id="rect8"
     width="24"
     height="24"
     x="0"
     y="0" />
  <g
     id="g3"
     transform="matrix(1.3355462,0,0,1.3355462,2.9024533,1.0127242)"
     style="fill:#ffffff;stroke:#000000;stroke-width:1.57239;stroke-dasharray:none;stroke-opacity:1">
    <path
       d="m 1.5283504,5.0567009 c 0.3170103,0.2641752 0.6340205,0.5283504 1.3208761,0.5283504 1.3208761,0 1.3208761,-1.0567009 2.6417521,-1.0567009 1.3737111,0 1.2680411,1.0567009 2.6417522,1.0567009 1.320876,0 1.320876,-1.0567009 2.6417522,-1.0567009 0.686855,0 1.003866,0.2641752 1.320876,0.5283505"
       id="path1"
       style="fill:#ffffff;stroke:#000000;stroke-width:1.57239;stroke-dasharray:none;stroke-opacity:1" />
    <path
       d="m 1.5283504,8.2268034 c 0.3170103,0.2641752 0.6340205,0.5283504 1.3208761,0.5283504 1.3208761,0 1.3208761,-1.0567008 2.6417521,-1.0567008 1.3737111,0 1.2680411,1.0567008 2.6417522,1.0567008 1.320876,0 1.320876,-1.0567008 2.6417522,-1.0567008 0.686855,0 1.003866,0.2641752 1.320876,0.5283504"
       id="path2"
       style="fill:#ffffff;stroke:#000000;stroke-width:1.57239;stroke-dasharray:none;stroke-opacity:1" />
    <path
       d="m 1.5283504,11.396906 c 0.3170103,0.264175 0.6340205,0.52835 1.3208761,0.52835 1.3208761,0 1.3208761,-1.0567 2.6417521,-1.0567 1.3737111,0 1.2680411,1.0567 2.6417522,1.0567 1.320876,0 1.320876,-1.0567 2.6417522,-1.0567 0.686855,0 1.003866,0.264175 1.320876,0.52835"
       id="path3"
       style="fill:#ffffff;stroke:#000000;stroke-width:1.57239;stroke-dasharray:none;stroke-opacity:1" />
  </g>
</svg>
